<svg fill="#1e40af" xmlns="http://www.w3.org/2000/svg" viewBox="0 0 374.53 94.67" width="120" height="30" class="logo-short"><g><g><circle cx="3.72" cy="74.8" r=".82"></circle><circle cx="16.29" cy="74.8" r=".82"></circle><circle cx="6.68" cy="74.8" r="1.02"></circle><circle cx="19.43" cy="74.69" r=".16"></circle><circle cx="13.33" cy="74.8" r="1.02"></circle><circle cx="10" cy="74.8" r="1.02"></circle><circle cx=".55" cy="74.69" r=".16"></circle></g><g><circle cx="3.72" cy="71.81" r="1.11"></circle><circle cx="16.29" cy="71.81" r="1.11"></circle><circle cx="6.68" cy="71.81" r="1.39"></circle><circle cx="13.33" cy="71.81" r="1.39"></circle><circle cx="10" cy="71.81" r="1.39"></circle><circle cx=".56" cy="71.88" r=".2"></circle><circle cx="19.44" cy="71.88" r=".2"></circle></g><g><circle cx="3.72" cy="68.73" r="1.17"></circle><circle cx="16.29" cy="68.73" r="1.17"></circle><circle cx="19.43" cy="68.77" r=".23"></circle><circle cx="6.68" cy="68.73" r="1.46"></circle><circle cx="13.33" cy="68.73" r="1.46"></circle><circle cx="10" cy="68.73" r="1.46"></circle><circle cx=".55" cy="68.77" r=".23"></circle></g><g><circle cx="3.72" cy="65.48" r="1.23"></circle><circle cx="16.29" cy="65.48" r="1.23"></circle><circle cx="6.68" cy="65.48" r="1.53"></circle><circle cx="13.33" cy="65.48" r="1.53"></circle><circle cx="10" cy="65.48" r="1.53"></circle><circle cx=".56" cy="65.49" r=".27"></circle><circle cx="19.44" cy="65.49" r=".27"></circle></g><g><circle cx="3.72" cy="62.23" r="1.23"></circle><circle cx="16.29" cy="62.23" r="1.23"></circle><circle cx="6.68" cy="62.23" r="1.53"></circle><circle cx="19.43" cy="62.27" r=".31"></circle><circle cx="13.33" cy="62.23" r="1.53"></circle><circle cx="10" cy="62.23" r="1.53"></circle><circle cx=".55" cy="62.27" r=".31"></circle></g><g><circle cx="3.72" cy="59.01" r="1.29"></circle><circle cx="16.29" cy="59.01" r="1.29"></circle><circle cx="6.68" cy="59.01" r="1.61"></circle><circle cx="13.33" cy="59.01" r="1.61"></circle><circle cx="10" cy="59.01" r="1.61"></circle><circle cx=".56" cy="59.01" r=".34"></circle><circle cx="19.44" cy="59.01" r=".34"></circle></g><g><circle cx="3.72" cy="55.76" r="1.29"></circle><circle cx="16.29" cy="55.76" r="1.29"></circle><circle cx="6.68" cy="55.76" r="1.61"></circle><circle cx="13.33" cy="55.76" r="1.61"></circle><circle cx="10" cy="55.76" r="1.61"></circle><circle cx="19.43" cy="55.73" r=".38"></circle><circle cx=".55" cy="55.73" r=".38"></circle></g><g><circle cx="3.72" cy="52.67" r="1.29"></circle><circle cx="16.29" cy="52.67" r="1.29"></circle><circle cx="19.43" cy="52.64" r=".38"></circle><circle cx="6.68" cy="52.67" r="1.61"></circle><circle cx="13.33" cy="52.67" r="1.61"></circle><circle cx="10" cy="52.67" r="1.61"></circle><circle cx=".55" cy="52.64" r=".38"></circle></g><g><circle cx="3.72" cy="49.59" r="1.34"></circle><circle cx="16.29" cy="49.59" r="1.34"></circle><circle cx="19.44" cy="49.52" r=".42"></circle><circle cx="6.68" cy="49.59" r="1.68"></circle><circle cx="13.33" cy="49.59" r="1.68"></circle><circle cx="10" cy="49.59" r="1.68"></circle><circle cx=".56" cy="49.52" r=".42"></circle></g><g><circle cx="3.72" cy="46.42" r="1.34"></circle><circle cx="16.29" cy="46.42" r="1.34"></circle><circle cx="6.68" cy="46.42" r="1.68"></circle><circle cx="13.33" cy="46.42" r="1.68"></circle><circle cx="10" cy="46.42" r="1.68"></circle><circle cx=".55" cy="46.38" r=".45"></circle><circle cx="19.43" cy="46.38" r=".45"></circle></g><g><circle cx="3.72" cy="43.3" r="1.34"></circle><circle cx="16.29" cy="43.3" r="1.34"></circle><circle cx="6.68" cy="43.3" r="1.68"></circle><circle cx="13.33" cy="43.3" r="1.68"></circle><circle cx="10" cy="43.3" r="1.68"></circle><circle cx=".55" cy="43.26" r=".45"></circle><circle cx="19.43" cy="43.26" r=".45"></circle></g><g><circle cx="3.72" cy="40.21" r="1.34"></circle><circle cx="16.29" cy="40.21" r="1.34"></circle><circle cx="6.68" cy="40.21" r="1.68"></circle><circle cx="13.33" cy="40.21" r="1.68"></circle><circle cx="10" cy="40.21" r="1.68"></circle><circle cx=".56" cy="40.21" r=".49"></circle><circle cx="19.44" cy="40.21" r=".49"></circle></g><g><circle cx="3.72" cy="37.01" r="1.34"></circle><circle cx="16.29" cy="37.01" r="1.34"></circle><circle cx="6.68" cy="37.01" r="1.68"></circle><circle cx="13.33" cy="37.01" r="1.68"></circle><circle cx="10" cy="37.01" r="1.68"></circle><circle cx=".56" cy="37.02" r=".49"></circle><circle cx="19.44" cy="37.02" r=".49"></circle></g><g><circle cx="3.72" cy="33.81" r="1.34"></circle><circle cx="16.29" cy="33.81" r="1.34"></circle><circle cx="6.68" cy="33.81" r="1.68"></circle><circle cx="13.33" cy="33.81" r="1.68"></circle><circle cx="10" cy="33.81" r="1.68"></circle><circle cx=".55" cy="33.88" r=".52"></circle><circle cx="19.43" cy="33.88" r=".52"></circle></g><g><circle cx="3.72" cy="30.72" r="1.4"></circle><circle cx="16.29" cy="30.72" r="1.4"></circle><circle cx="6.68" cy="30.72" r="1.75"></circle><circle cx="13.33" cy="30.72" r="1.75"></circle><circle cx="10" cy="30.72" r="1.75"></circle><circle cx=".55" cy="30.71" r=".52"></circle><circle cx="19.43" cy="30.71" r=".52"></circle></g><g><circle cx="3.72" cy="27.7" r="1.46"></circle><circle cx="16.28" cy="27.7" r="1.46"></circle><circle cx="6.68" cy="27.7" r="1.82"></circle><circle cx="13.32" cy="27.7" r="1.82"></circle><circle cx="10" cy="27.7" r="1.82"></circle><circle cx=".56" cy="27.69" r=".56"></circle><circle cx="19.44" cy="27.69" r=".56"></circle></g><g><circle cx="3.72" cy="24.51" r="1.11"></circle><circle cx="16.29" cy="24.51" r="1.11"></circle><circle cx="6.68" cy="24.51" r="1.39"></circle><circle cx="13.33" cy="24.51" r="1.39"></circle><circle cx="10" cy="24.51" r="1.39"></circle><circle cx=".55" cy="24.53" r=".52"></circle><circle cx="19.43" cy="24.53" r=".52"></circle></g><g><circle cx="3.72" cy="21.36" r=".36"></circle><circle cx="16.29" cy="21.36" r=".36"></circle><circle cx="6.67" cy="21.36" r=".44"></circle><circle cx="13.32" cy="21.36" r=".44"></circle><circle cx="9.99" cy="21.36" r=".44"></circle><circle cx=".56" cy="21.36" r=".2"></circle><circle cx="19.44" cy="21.36" r=".2"></circle></g><g><path d="m3.39,5.92s-.1,0-.05.05c.05.05,0,0,.05-.05Z"></path><path d="m2.81,6.46s-.14-.05-.14,0-.05.05-.05.1c.05,0,.14,0,.19-.1Z"></path><path d="m3.15,6.65s-.05.15,0,.15.05-.15,0-.15Z"></path><path d="m2.52,6.12s.1-.05.14-.05,0-.1-.05-.1-.1.1-.14.1-.05-.05-.1-.05,0,.1,0,.1c0,0-.1.1-.1.15.1.1.14-.05.24-.15Z"></path><path d="m1.94,5.73s.19-.1.19-.15c0-.15-.19-.05-.29,0,0,.1.05.19.1.15Z"></path><path d="m17.52,13.56s-.14.05-.19.05-.1.05-.14.1c-.1,0-.19.05-.29.1h-.19c-.05-.19-.1-.39-.14-.58v-.29l.19-.1s.14-.05.19-.1c.05-.05.1-.1.1-.19s.1-.1.19-.19c.1-.1.14.05.24,0,.1-.05.1-.1.14-.1h.29c0,.19.14.29.24.34l.1-.19v-.24h.1l.05-.19-.05.05s-.14-.05-.24-.1,0-.05,0-.05c-.05-.1-.14-.15-.24-.1-.1-.05-.05-.1.1-.1.05-.05.1-.05.14-.1.14.05.29.1.43.19.43-1.36.53-2.82.34-4.23-.05-.24-.1-.49-.14-.73-.1,0-.19,0-.29.05-.05,0-.1.1-.14.15-.14.15-.24.29-.39.44.05.05.19,0,.29,0,0,.1.1.19.05.29-.05.1-.05.05-.05.1s.05.1,0,.19c-.1.19-.29.39-.48.53h-.1c-.1.05-.1.19-.24.24,0,.1.1.15.1.24s-.05.1-.05.19-.1.05-.14,0c-.05-.05,0-.15,0-.24s0-.05-.05-.05t-.05-.1h-.14s-.05-.1-.1-.15c-.05.05-.1.1-.14.1,0,.05,0,.15.05.19.05.05.14-.1.19,0,0,.1-.05.15-.1.19.05.19.24.53-.05.63-.05.1-.14.24-.24.29-.1,0-.19.05-.29.1h-.1s-.14.05-.19.1c0,.15.14.19.19.34v.1s-.1.1-.14.15l-.1.05s-.05.05-.1.05-.1-.1-.14-.15c-.05-.05-.05-.15-.14-.1v.19c0,.1.14.19.24.29v.05s.14.15,0,.19c-.1-.05-.14-.1-.24-.15-.05-.1-.1-.19-.19-.29-.05-.15,0-.39-.1-.53-.05,0-.05.05-.1.05s-.05-.19-.1-.29c-.05-.1-.1-.1-.1-.19-.1,0-.14.05-.24.05-.1.19-.34.24-.48.39,0,.15-.05.24-.05.44t-.1.05c-.14-.1-.14-.29-.24-.44,0-.05,0-.1-.05-.1,0-.15-.05-.24-.05-.39-.05,0-.05.05-.1.05-.1-.05-.14-.15-.19-.24l-.58-.19c-.05-.1-.19-.05-.24,0-.1-.05-.19-.15-.24-.24t-.05.05c0,.1.05.24.1.34h.29s.1.05.14.05l.14.1c0,.15-.14.24-.19.34-.1.05-.19.1-.24.19h-.1c-.1.1-.24.15-.39.15-.05-.1-.05-.19-.1-.24-.05-.05-.1-.1-.14-.15,0-.1-.05-.19-.05-.29-.05-.05-.1-.05-.19-.15-.1-.1-.05-.05-.05-.05,0,0-.05-.24-.14-.19-.1.05.05.15.05.24.05.1.1.19.14.29.05.05.1.05.1.15s0,.15.05.19c.05.05.24.15.24.29.14.1.39-.05.53,0-.1.19-.19.39-.24.58-.05.05-.1.1-.19.15-.05.05-.14.1-.19.1-.05.05-.05.15-.1.24-.05.1,0,.19,0,.24s.05,0,.1.05c0,.15,0,.24-.05.39-.1.1-.19.15-.34.24v.29c0,.1-.14.1-.19.19,0,.19-.05.24-.14.34-.1.1-.1.15-.14.19,0,0-.05,0-.05-.05-.14,0-.29.1-.43,0,0-.19-.05-.39-.19-.53v-.24s-.05-.1-.1-.15l-.05-.1-.05-.05c-.05-.1,0-.19,0-.29t.1-.1v-.29c-.05-.1-.14-.19-.19-.29v-.39c-.1-.1-.34-.05-.39-.19-.05,0-.1.1-.19.1h-.29c-.1,0-.14.05-.19.05s-.19-.1-.29-.1t-.05-.1s-.05-.05-.05-.1-.1-.05-.14-.1c0-.05-.05-.1-.05-.15-.05-.1-.1-.15-.1-.24,0-.05,0-.15.05-.24.05-.1,0-.24.05-.34.05-.1.1-.15.14-.19.1-.1.14-.19.24-.29v-.1c.1-.1.24-.24.34-.34.05,0,.14.05.19.05.14-.05.29-.15.48-.19.05.1.19,0,.29,0s.05.05.05.15c0,.05.05.1.05.1,0,.05-.05.05-.05.1.05.05.14.05.19.1.05.05.1.15.19.15h.14s0-.1.05-.1h.24c.1,0,.05.05.1.05h.19s.1,0,.1.05c.05,0,.05.05.1.05s.1-.15.14-.19c.05-.05.1-.15.1-.24-.05-.1-.1,0-.19,0-.19.05-.34-.05-.48-.19v-.19c.19-.1.43.05.68,0,.14-.19-.24-.15-.29-.29.05-.05.1-.05.14-.1-.05-.05-.19.05-.29.05,0,.05.05.1.05.15s-.14.15-.29.1c0,.05-.05.1-.1.1,0,.05.05.1.05.15-.1.24-.24-.1-.29-.24v-.24s-.1,0-.14-.05c-.05-.05-.1-.19-.19-.19,0,.15.1.19.19.29.1.1.14.1.14.19s-.05,0-.05,0c0,0,0,.19-.1.15,0-.05.05-.1,0-.15-.05-.05-.14-.1-.19-.19-.05-.1-.1-.24-.19-.24s-.14.15-.34.1c-.05.05-.05.1-.05.15l-.29.15v.15s-.1.1-.14.15h-.43s0-.19,0-.29v-.24s.1-.05.14-.05.05.05.1.05c.1,0,.14,0,.24-.05.05-.1,0-.24-.05-.34-.05,0-.1-.05-.14-.05-.05-.1.1-.1.14-.19.05-.1.05.05.1.05.1-.1.19-.19.34-.29,0-.05.05-.1.05-.15.1.05.14,0,.19-.05,0-.15-.05-.44.14-.39,0,.05,0,.1-.05.15.05.05.05.1.05.1.14.1.39-.1.48.05.05-.05.1-.1.14-.15v-.24s.05-.05.1-.05c-.05-.05,0-.1.05-.15.05-.05.24,0,.29-.1-.05-.15-.19.05-.29,0-.1-.05-.1-.1-.19-.15.05-.1,0-.15,0-.24.05-.05.05-.15.1-.19.05-.05.1-.1.1-.19,0-.05-.05-.1-.05-.1-.05,0-.1,0-.14.05v.24s-.1.05-.1.05c0,0-.05.1-.05.15s-.05.05-.05.05v.05s-.05.05-.05.1.1.05.1.1-.1.1-.1.1c-.05.29-.05.44-.05.53-.05,0-.05.1-.14.1s0-.05,0-.1-.1-.1-.1-.15.05-.1.05-.15c-.1-.05-.19,0-.24.1-.05,0-.14-.05-.19-.1,0-.1.05-.1.1-.19.05-.1-.05,0-.1-.05v-.1s.1-.05.14-.1l.39-.34c0-.15.05-.19.14-.24.05-.1.1-.24.14-.34.05-.05.1-.05.14-.1,0-.05.05-.1.1-.15.05,0,.05.05.1,0,.05-.05-.05-.1-.05-.1.1,0,.19,0,.29-.05.05.05.1.05.1.15s-.05.1-.05.15.1,0,.14-.05c.05.05.1.05.14.1.05.05.14.05.24.1,0,.15.14.15.24.19-.05.1-.1.19-.14.24-.14-.05-.29-.15-.43-.19-.05.1.1.15.14.19.05.05.05.1.05.19.05.05.1.05.14.05s.05-.05.05-.1c.05,0,.1,0,.14-.05,0-.1.05-.15.1-.19l.1-.05v-.29c0-.1.14-.05.14,0s-.05.1-.05.15.05.1.05.1c.05,0,.05-.05.05-.1.1-.1.19-.19.34-.19,0,.05-.1.1-.1.15,0,.1,0,.19.05.24.1-.05.05-.15.05-.19s.05-.1.05-.1c.05-.05.05-.1.05-.1,0,0,.14,0,.19-.05.05-.05.05.05.1.05s.05-.15.1-.19c.05-.05.19.1.34.1.05.05.05.15.1.15.14-.1-.1-.19-.1-.29,0-.05,0-.15.05-.19v-.19s.1-.15.14-.19c.05-.05.14,0,.14.05,0,.1-.1.19-.05.29,0,.05.05.05.05.1v.1c.05.15,0,.34-.05.49-.05.05-.19,0-.19.15.1,0,.24-.1.34,0,.14-.05-.05-.39.05-.44.1.05,0,.24.14.29.05.1.05.19.1.24,0-.15-.05-.29-.1-.39,0-.1-.05-.1-.05-.19-.1-.05-.1-.19-.14-.29-.05-.1-.1-.1-.1-.15.05-.1.05-.15.14-.24.1.05.19.05.29.05,0,.1-.05.1-.05.24.05.05.14,0,.19,0,.1.19.19.44.24.63.1,0,.1-.1.05-.19-.05-.1-.14-.19-.14-.29,0-.05-.05-.15-.05-.19-.05-.05-.1-.05-.1-.05,0-.19-.14-.29.05-.39.1,0,.24,0,.34.05,0-.05-.1-.1-.1-.15s0-.15.05-.19c.1-.05.19-.05.34-.05.05,0,.1-.05.1-.05.05-.05.19-.1.29-.05.05,0,.1.05.14.05s.1-.19.14-.24c.05-.05.14-.05.19-.05.1.05.1.15.14.19l.1.05c.1.1.24.15.19.29-.05.05-.1.05-.19.1-.05.05-.1.1-.14.15,0,.05-.05.1-.1.1-.1.05-.24.15-.34.19.05.1.14,0,.24-.05.1-.05.19-.1.24-.19h.14s.05.05.05.05h.14s.14.05.24.1c.1,0,.19,0,.29-.05,0,0,0-.1.05-.1.14,0,.24,0,.34.05,0,.05-.05.1-.05.15s.14.24.14.34c.05-.05.1-.15.14-.19.05,0,.05.05.1.1h.14C16.17,1.35,12.36-.54,8.55.14c-1.59.19-3.09.88-4.29,1.95.1-.05.19-.1.29-.15s.14-.1.24-.1c.19,0,.39-.1.58-.1,0,.05.05.05.05.1.1,0,.14-.1.19-.05.05.05.1.15.14.19-.05.05-.1.15-.14.19h-.19s-.1.1-.1.15c.05.05.1-.05.19,0-.05.1-.1.15-.14.24-.05.1-.14.1-.19.19-.05.1-.05.19-.1.29-.1.05-.14.15-.24.24-.05.05-.1.1-.1.15s.05.1,0,.19c-.05.1-.1.05-.1.1-.19,0-.43-.05-.63-.15,0-.1.05-.15.1-.24.05,0,.05-.05.1-.05.05.1.1.15.19.15.05,0,0-.1,0-.15s-.14-.05-.14-.1.1-.05.14-.1-.1,0-.14,0c0-.15.05-.24.1-.34.05.05.1.1.14.1s0-.15.05-.24c.05-.05.1-.05.14-.1-.1-.15-.19,0-.34.05h-.1s-.1.05-.14.05-.05-.05-.1-.05h-.1s-.05-.05-.1-.05c-.19.19-.39.44-.58.68l.14.1s.05-.1.1-.1c.1.05.14.15.19.24h-.24s-.05.15-.14.15c-.05-.05,0-.1,0-.15-.1,0-.14-.05-.19-.1l-.24.34-.1.15s.05.05.05.1c-.05.05.05.05.05.05v.19c-.1.05-.24.1-.39.1v-.05l-.14.19c-.14.19-.24.39-.34.58h.05s.14.1.19.15c.05,0,.14,0,.19.05.05.05-.05.05-.05.1s.24,0,.29-.05c.05-.05.05.05.05.05,0,0,.05.1.1.1,0-.05,0-.15.05-.19.05-.05-.1,0-.1-.05.14-.1.19.05.24.05h.1l.05.05c.1,0,.19,0,.29-.05,0,.1.05.19.14.19,0-.05,0-.15.05-.19.05-.05.1-.1.05-.19s-.14-.1-.24-.19c-.1-.1.05-.24.14-.24s.19.15.24.24c-.1.1.05.15.1.19,0,.1.05.1.1.15.05.05,0-.15.05-.15s.05.19.1.19c.05-.05.05-.15.14-.19,0-.05-.05-.05-.05-.1s.1-.05.14-.05.05.05.05.05c0,0,.05.05.05.1s-.05.05-.05.1.05.1.05.15c-.1.1-.24.19-.43.19-.05.05.05.05,0,.1-.05.05-.05.1-.05.15-.05.1-.1.19-.19.19s-.24-.15-.29-.05c.05.05.19.05.24.15-.05.1-.14.05-.14.15v.39s.1,0,.14.05c.05.05,0,.15.05.19.05.05.1.05.14.05.05.05.1.05.14.05.1,0,.19-.05.29-.05.05.19,0,.44.24.49.05-.1,0-.24.05-.39,0-.05.1-.15.1-.19s-.05-.1-.05-.15c-.05-.05-.05-.1-.05-.15s.1-.1.1-.15c-.1-.1-.1-.24,0-.29h.14c.14.05.29.19.34.29v.1s.05.05.05.1.14-.05.19-.05.05-.24.14-.19c.1.05.05.1.1.19.05.1.05.15.05.24.1.1.19.15.29.24v.1s.1,0,.1.05.05.1.05.19c-.05.05-.1.1-.14.15-.05.05-.1.1-.19.15-.1.05-.19-.05-.34-.05-.05.05-.1.05-.19.1q-.1.05-.1.1c.1,0,.14-.1.29-.1s.05.1,0,.15c-.05.05.05.05.1.1,0,.05.14,0,.14.1-.1.1-.19.15-.29.15-.05-.05.05-.1,0-.1-.1.05-.19.1-.29.1-.05.05,0,.15,0,.19s-.14,0-.19.05c-.05.05-.05.1-.1.19-.05.05-.1.05-.14.1-.05.05.05.15.05.19-.1.15-.24.19-.34.34,0,.1.1.39,0,.39s-.05-.19-.1-.24c-.14-.05-.29-.1-.43-.1-.05.05-.05.1-.1.1s-.19-.05-.24-.05-.05.1-.1.15c-.05.05-.1.05-.1.05v.29s.05.05.05.1.1.24.19.24h.14s.05-.1.1-.19c.1,0,.19-.1.29-.05,0,.15-.1.29,0,.39.1,0,.19-.15.29-.05,0,.15,0,.29.05.39h.24s.1.15.14.19c.05,0,.05-.05.05-.05,0,0,.05,0,.1-.05.05-.05.1-.1.19-.1s-.05.15,0,.19c.05.05.05-.1.1-.15.05-.05.1.05.14.1.05.05.19-.05.24-.05s.1.1.14.15c.05,0,.05.05.1.05.05.05.05.1.1.15h.29c.05.1.19.15.19.29s-.05.1-.1.19c-.05.1.14,0,.19,0,.05-.05.14-.05.24-.05.05,0,0,.1.05.1h.29c.1,0,.1.05.14.1.05.05.1,0,.14.05.05.05.05.1.05.19s-.1.1-.1.15-.1.1-.1.19-.1,0-.1.05v.15s-.1.24-.1.34.05.05.05.1-.05.05-.05.1-.14,0-.24,0c-.05.05-.1.05-.14.1-.05,0-.1.05-.14.1-.05.05,0,.19-.05.29-.05.1-.1.1-.14.15-.05.05-.1.24-.19.24s-.14-.05-.19-.05c0,.1.05.1.05.19s-.05.15-.14.15h-.14s-.05.19-.1.19h-.14c-.1,0,0,.1,0,.19s-.1.19-.14.29c.05.05.1.05.1.15s-.1.05-.1.15t-.05.1s-.05.05-.05.1v.24c0,.1.24.05.19.24h-.29c-.1-.05-.24-.1-.19-.29-.05,0-.1-.05-.14-.05-.05-.1-.1-.24-.1-.39,0-.05.05-.05.05-.1s-.1-.05-.1-.1.05-.05.05-.05c0,0,.05.05.05,0-.05-.1.05-.19.05-.29s-.05-.05-.1-.1c.05-.1.05-.24.05-.39.05-.1.1-.15.1-.24,0-.15.05-.24.05-.39,0-.19,0-.39.05-.58,0-.05.05-.1,0-.15-.05-.05-.1-.1-.14-.15-.1-.1-.19-.19-.29-.29-.05-.05-.1-.1-.1-.15-.05-.1-.1-.24-.1-.34,0-.05.05-.05.05-.1s-.05-.05-.05-.1.05-.15.05-.19c.05,0,.1-.05.14-.1.05-.19-.05-.29-.14-.44.05-.05-.1-.05-.19-.1-.1-.05-.05-.15-.1-.19-.05-.05-.1-.05-.14-.1-.05,0-.1.05-.14,0s-.14-.15-.29-.15h-.29c-.1-.05-.19-.15-.34-.19-.14-.24-.34-.49-.48-.68,0-.05-.05-.1-.1-.1,0,.1.1.19.1.24s.05.1.05.15.05.1,0,.15c-.05.05-.1-.05-.14-.1-.05-.05-.05-.15-.1-.19-.05-.05-.1-.1-.14-.19,0-.05.05-.05.05-.1s-.1-.1-.14-.15l-.05-.05c-.1-.05-.14-.15-.14-.19-.05-.1-.1-.15-.1-.24v-.78s.1,0,.1-.1-.1-.1-.14-.15c-.05-.05-.14-.1-.19-.15v-.1s-.1,0-.14-.05c-.05-.05,0-.05-.05-.1-.05-.05-.1-.05-.1-.1v-.1.05c-1.4,5.93,3.47,10.31,7.24,10.8,3.62.49,7.19-1.17,9.12-4.28h-.1Zm.24-1.95s-.05-.05-.05-.1.1,0,.14,0c0,.05-.05.1-.1.1Zm.58-4.33c.1.05.05.15.1.19.05.05.1.15.1.19s-.05.05-.05.1v.19c0,.1-.05.05-.1.05-.05-.19-.05-.44-.05-.73t0,0Zm-.82,1.95s.1-.1.14-.15c.05-.05.1-.15.24-.15.05-.05.1-.1.1-.15.05,0,.14-.05.14-.1,0-.19.05-.39.1-.58.1-.05.19-.05.29,0v.1s-.1.1-.14.15c-.05.05-.1,0-.1.05s.05.1.05.15c0,.1,0,.15-.05.24v.1s-.1.1-.14.1c-.05.05-.1.1-.14.1h-.14s0,.05,0,.1-.05,0-.1.05c-.05.05-.1.19-.19.15-.1-.05-.05-.05-.05-.15Zm-6.37-.29c0,.1-.19.1-.19,0,.05,0,.14-.05.19,0Zm-1.16-.78h.1v.1s.1.15,0,.19c-.1.05-.1-.19-.1-.29Zm5.89-5.06s.1-.05.1-.05c.1.05.34.15.19.29-.1,0-.24,0-.34.1-.05,0-.1,0-.14-.05-.05-.05.14-.19.19-.29Zm-3.14,1.31c.05-.1.14-.19.1-.34.14-.19.29-.34.48-.49.14,0,.24,0,.29-.1h.1c.05.1.05.19,0,.29-.14,0-.24.05-.39.15-.05.05-.1.1-.19.05-.1.05-.1.24-.19.29v.24c0,.1.1.15.1.19-.14,0-.34,0-.43-.1.05-.1.05-.15.14-.19Zm-1.83-1.36s.05.1.1.15c-.05.05-.1.1-.14.1-.05-.05-.1-.19.05-.24Zm-.72-.49c.1-.05.19-.1.24-.19.1.05.14.15.19.24q.05.1.1.1s.1.1.1.15c-.05.1-.05.15-.1.24l-.05.05v.1c-.1.05-.1.1-.14.15-.14-.05-.05-.19-.05-.34h-.1s0-.1,0-.15,0,.1-.05.05c-.05-.05-.14-.1-.19-.15,0-.05.05-.15.05-.24Zm-5.45,7.49s-.1,0-.19-.05c0-.15.14-.05.24-.05.05.05,0,.1-.05.1Zm0-.15s-.05-.05-.1-.05h-.14l-.05-.05s-.14,0-.19-.05c.05-.05.14-.05.19-.05h.05c.1,0,.19.05.24.1.05,0,.1,0,.14.05.05.05-.05.05-.05.05h-.1Zm.29.19s-.1-.05-.14-.1c.1-.15.39-.1.43.05-.1-.05-.19.05-.29.05Zm-3.43-2.33s-.1-.1-.14-.19c.14-.05.19.1.24.1,0,.1-.05.1-.1.1Zm7.72-1.36s.05.1,0,.15c0,.05.05.05.05.1,0,.15.05.24.1.34v.05s.1.1.14.19q.05.1,0,.15s-.14.05-.19.05-.14.1-.19,0c-.05-.1.1-.05.1-.15s-.05-.05-.05-.05c0-.15.05-.15.1-.19-.05-.05-.05-.1-.05-.15s-.05.05-.14,0c0-.1-.05-.24-.05-.34s.1-.19.19-.15Zm-.48.53c.1,0,.14-.05.24-.1.1-.05.05.05.1.1,0,.1-.05.19-.05.24-.1,0-.19.1-.24.05-.1-.1-.1-.19-.05-.29Zm-4.15-2.72s.19-.05.29-.05v.15h-.29v-.1Zm-1.06-1.31c0-.1.1-.15.05-.24.1,0,.19.1.29.1h.19s-.05.1-.05.19.05.19.05.29c-.14.05-.34.15-.43,0,0-.05.05-.1.05-.15s-.1-.15-.14-.19Zm-.58.83s.05.05.1.05c.05-.05.24-.05.34,0,0,.1,0,.19-.05.24-.1.05-.19.1-.24.1t-.05-.1s-.1-.05-.19-.1c0-.1,0-.19.1-.19Zm.05,1.36c-.14.05-.14-.1-.29-.1s-.24.15-.29.15-.1-.05-.1-.1-.1-.05-.1-.1.24,0,.29-.05c.05-.05-.1-.05-.1-.1s-.24.05-.29,0c-.05-.05.05-.05.1-.1.05-.05-.1,0-.1,0-.05-.1.14-.15.19-.24.05.05.1.1.14.1.1-.05.19-.05.24.05.05.1,0,.1,0,.1,0,0,0-.19.14-.19s.05.1.1.19c0,.05.05.1.05.1t.1.05s-.05.24-.1.24Zm.43-.05c0,.15-.19.15-.29.1-.1-.05,0-.1,0-.15.1-.05.24,0,.29.05Zm-.19-.44s-.14-.05-.19-.1v-.05s.1-.05.1-.05c0,0-.05-.05,0-.1.05-.05.19-.1.29-.05,0,.15-.05.29-.19.34Zm.39-.1h-.14c0-.1.05-.19.14-.24.05,0,.14,0,.19.05,0,.1-.19.1-.19.19Zm.05-.39s0-.15.05-.19c-.1-.1-.34-.05-.29-.19.14,0,.24.05.39.1.05,0,.05.05.1.1.14,0,.29,0,.39-.1.1.05.24.1.24.29-.05,0-.1.05-.14.05s-.1,0-.14-.05c-.19-.05-.43.1-.58,0Zm.68,1.7s-.05.1-.1.1-.05-.05-.1-.05c0-.15,0-.24.05-.39h.05c.05.1.14.15.19.19,0,.1.1.1.1.19-.05.05-.14-.05-.19-.05Zm1.3-.39s-.1.05-.14.05-.1-.19-.24-.1c.05.15.19.19.19.39-.05.05-.14-.05-.19,0,.05.1.14.1.14.19-.1.05-.19,0-.29,0-.05-.1-.05-.15-.1-.24h-.29s-.05-.1-.05-.15c.05-.1.19-.1.24-.19.05-.1-.05-.05-.05-.1s.05-.1.1-.15c.05-.05-.05-.19-.05-.29-.05-.05-.1-.05-.14-.1-.24.05-.48,0-.72-.1,0-.05-.05-.1-.05-.15s.14-.19.19-.19.1-.05.14-.05l.19-.05s0,.15.05.19c.1,0,.24.05.34.1.1.05.14.05.24.1,0,.1,0,.19.05.29.14.1.24.19.34.29.05.1.1.1.1.24Zm-.92-.44s.05.1.05.15h-.1s-.05-.24.05-.15Zm1.21,2.63c0-.1.05-.15.1-.24.05,0,.14.05.19.1-.1.05-.19.15-.29.15Zm1.69-2.63c-.1.05-.14.15-.24.19-.1.05-.14.05-.19.1-.05.05-.14.19-.19.24-.05.24-.1.44-.19.68-.1-.05-.19-.05-.34-.1-.05-.15-.24-.29-.19-.49,0,0-.05-.05-.1-.05-.05-.15-.1-.24-.1-.34s.05-.05.1-.1c.05-.05,0-.05,0-.1s.05-.05.05-.1-.1-.15-.1-.19,0-.1-.05-.1.1,0,.1-.05,0-.1-.05-.19c-.05,0-.1.15-.19.05,0-.1,0-.19.05-.24-.05-.19-.1-.34-.24-.49-.05.05-.19.05-.29.1-.05,0-.05.05-.1.05h-.19s-.05-.1-.1-.1-.1-.1-.1-.15.19-.05.24-.1c.05-.05.14,0,.14-.05s-.1-.1-.14-.1-.29-.05-.34-.1c.05-.1.19-.15.29-.24h.1c.05-.1,0-.19-.05-.24,0-.05.05-.1.05-.15.1-.1.24-.15.29-.29.05,0,.14-.1.14-.15l.24-.1s.05.1.1.15.14-.1.19-.1c.1.05.1.15.14.24.05,0,.1-.05.14-.05,0-.05-.05-.1-.1-.15-.05-.05-.1-.1-.1-.15.1-.05.24-.1.34-.15.1.05.24.05.34,0v-.15s.14-.1.19-.15c.19,0,.34.05.53.05-.05.05-.1.1-.19.1h-.1s-.24.05-.24.1v.05c.1,0,.19-.05.29-.1.1,0,.24,0,.34-.05.05.05.14.1.19.15s-.14.1-.24.15l-.39.1s-.1,0-.1.05.14,0,.19,0c.1,0,.14-.05.24-.05.1-.05.24-.05.34,0-.05.15-.24.15-.29.29.05.05.14-.05.19-.1l.1.05c.1-.05.24-.1.39-.1.05.05.14.05.19.15-.1.05-.14.15-.24.19-.05.05-.19.05-.19.1s.05.05.14.1c.1.05-.1.1-.1.15v.19s-.1.15-.1.24v.1c0,.1-.05.15-.05.19s.14.15.1.24c-.05.1-.24.1-.29.19.05.15.14.24.19.34-.05.1-.14.1-.24.05-.14.15.14.15.19.24.05.1-.05.05-.05.05-.05.05-.14.15-.19.19-.1,0-.14,0-.19-.05Zm.39.63s.05.05.1.05.19,0,.29-.05c.1.05.14.1.24.1,0,.05-.05.1-.05.1-.05.05-.1.1-.19.15-.05,0-.05.05-.1.05-.1,0-.14-.05-.24-.05-.1-.05-.19-.24-.05-.34Zm4.49,6.91c-.05.15-.1.34-.14.49-.05.05-.14.1-.24.15-.05-.05-.1-.1-.1-.15s0-.05.05-.1c0-.15.05-.24.1-.39.05-.1.19-.24.29-.24.05,0,.1.05.1.1s0,.1-.05.15Zm1.83-1.51s-.05-.1-.05-.15.05-.1.1-.1.1.24-.05.24Zm2.85-.15c0,.1.1.1.05.24-.05.15-.1,0-.14,0s-.14,0-.1-.1c.05-.1.1-.1.19-.15Zm-.19-1.02s0,.1-.05.15h-.05c-.1,0-.05-.15.1-.15Zm-.14.44s.05-.05.1-.05.1.15.05.19c-.05.05.1.05.1.1s-.05.1-.19.1-.05-.19-.05-.34Zm0,1.17c.14.05.19-.15.29-.05,0,.1-.14.1-.19.19-.05.1.05,0,.05.05v.19s-.14.1-.19.1c0-.05-.05-.1-.1-.19.05-.15.1-.24.14-.29Zm-.58-1.22c.1.05,0,.19-.05.19s-.1-.24.05-.19Zm-.1,1.12c.14,0,.19-.15.29-.19h.05s.1-.1.14-.1.1.05.14.1c0,.05-.05.1-.1.15,0,.05.05.1.05.15-.1.1-.1.19-.14.29h-.24c-.1-.1-.29-.15-.19-.39Zm-.39.44c-.1-.1-.1-.19-.19-.29-.1-.1-.19-.15-.24-.24-.05,0-.05-.05-.1-.1-.05-.05.1-.1.14-.05s.1.05.14.1c.14.1.34.24.43.34v.19s-.1.05-.19.05Zm.19.1c.14-.05.29,0,.43.05v.1c-.14.05-.39,0-.43-.15Z"></path><path d="m11.44,6.36c.1-.05.05-.19-.05-.19s-.05.15.05.19Z"></path><path d="m13.13,8.06c0,.19.19.05.14-.05-.05-.1-.1.05-.14.05Z"></path><path d="m14.15,8.02s.14-.05.19-.05v-.05l-.19.05s-.05,0,0,.05Z"></path><path d="m12.84,8.89c0-.1-.05-.15-.05-.29,0-.05.05-.05.05-.1s-.05,0-.05,0c-.05-.05-.1-.1-.1-.24h.1s-.05-.1-.05-.15c-.14-.05-.19.1-.29.15-.05.15,0,.24.05.34,0,.05.05.05.05.1-.05.05-.05.15-.05.24.1.05.29.1.34-.05Z"></path><path d="m4.02,8.11c.19.05.05-.24.14-.24s.1.1.14.1.1-.05.1-.1c-.05,0-.1-.05-.14-.05-.1-.05-.14.05-.19.05,0,.05-.05.15-.05.24Z"></path><path d="m3.82,7.68c.1.05.19.05.29.05,0-.1-.24-.1-.29-.05Z"></path><path d="m3.68,7.29s-.05-.15-.19-.15c0,.1.05.19.1.29.05,0,.1-.1.1-.15Z"></path></g><g><path d="m53.35,75.14c-2.69,0-5-.44-6.91-1.32s-3.38-1.92-4.41-3.15c-1.04-1.22-1.83-2.8-2.39-4.74-.56-1.94-.91-3.65-1.04-5.12-.12-1.47-.19-3.18-.19-5.12V22.73h5.17v31.37c0,2.13.03,3.79.09,4.98.06,1.19.28,2.6.66,4.23s.92,2.86,1.64,3.71c.72.85,1.79,1.58,3.19,2.21,1.41.63,3.11.94,5.12.94,4.32,0,10.24-2.44,17.75-7.33V22.73h4.88v51.28h-4.88v-6.2c-.31.19-1.19.75-2.63,1.69-1.44.94-2.58,1.63-3.43,2.07-.85.44-2,.99-3.48,1.64-1.47.66-2.96,1.14-4.46,1.45-1.5.31-3.07.47-4.69.47Z"></path><path d="m83.51,74.01V22.73h5.17v6.01c.12-.06.64-.39,1.55-.99.91-.59,1.46-.97,1.64-1.13.19-.16.7-.48,1.55-.99s1.42-.83,1.74-.99.86-.44,1.64-.85,1.41-.69,1.88-.85c.47-.16,1.08-.36,1.83-.61.75-.25,1.42-.42,2.02-.52.6-.09,1.28-.19,2.07-.28.78-.09,1.55-.14,2.3-.14,2.82,0,5.24.44,7.28,1.32,2.03.88,3.58,1.91,4.65,3.1s1.88,2.75,2.44,4.7c.56,1.94.91,3.61,1.04,5.02.12,1.41.19,3.12.19,5.12v33.34h-4.98v-31.84c0-5.45-.73-9.48-2.2-12.12-1.47-2.63-4.62-3.94-9.44-3.94-1.19,0-2.39.14-3.62.42-1.22.28-2.57.78-4.04,1.5-1.47.72-2.52,1.24-3.14,1.55-.63.31-1.83,1.02-3.62,2.11-1.79,1.1-2.71,1.68-2.77,1.74v40.57h-5.17Z"></path><path d="m155.4,74.01l-16.25-51.28h5.82l11.27,37.19,3.48,11.08,3.85-11.37,12.87-36.91h5.26l-17.94,51.28h-8.36Z"></path><path d="m203.69,75.14c-7.64,0-13.43-1.97-17.37-5.92-3.95-3.94-5.92-10.58-5.92-19.91s2-16.78,6.01-21.23c4.01-4.45,9.33-6.67,15.97-6.67,5.88,0,10.25,2.07,13.1,6.2,2.85,4.13,4.27,10.58,4.27,19.35v1.88h-34c.12,4.51.69,8.22,1.69,11.13,1,2.91,2.46,5.1,4.37,6.57,1.91,1.47,3.96,2.47,6.15,3.01,2.19.53,4.85.8,7.98.8,1.69,0,3.87-.27,6.53-.8,2.66-.53,4.52-.99,5.59-1.36l1.03,4.51c-4.88,1.63-10.02,2.44-15.4,2.44Zm-17.94-30.62h28.46c0-5.95-1.08-10.61-3.24-13.99-2.16-3.38-5.4-5.07-9.72-5.07s-7.86,1.63-10.61,4.88c-2.76,3.26-4.39,7.98-4.88,14.18Z"></path><path d="m225.83,74.01V22.73h5.17v6.86c1.32-2.25,3.26-4.15,5.82-5.68,2.56-1.53,5.63-2.3,9.2-2.3,2.5,0,4.41.28,5.73.85l-1.04,4.51c-1.88-.44-3.82-.66-5.82-.66-5.58,0-10.21,3.07-13.9,9.2v38.51h-5.17Z"></path><path d="m266.1,75.04c-4.82,0-9.48-.72-13.99-2.16l1.13-4.6c5.26,1.57,9.42,2.35,12.49,2.35,4.07,0,7.4-.81,10-2.44s3.9-3.85,3.9-6.67c0-2.44-.89-4.51-2.68-6.2-1.79-1.69-3.93-3.05-6.43-4.09-2.51-1.03-5.02-2.13-7.56-3.29-2.54-1.16-4.7-2.82-6.48-4.98-1.79-2.16-2.68-4.84-2.68-8.03,0-4.26,1.5-7.58,4.51-9.96,3-2.38,6.98-3.57,11.93-3.57,2.63,0,6.35.66,11.18,1.97l-1.03,4.41c-4.26-1.25-7.99-1.88-11.18-1.88s-5.81.81-7.66,2.44c-1.85,1.63-2.77,3.69-2.77,6.2s.87,4.51,2.63,6.2c1.75,1.69,3.88,3.07,6.39,4.13,2.5,1.07,5.02,2.16,7.56,3.29,2.54,1.13,4.68,2.74,6.43,4.84,1.75,2.1,2.63,4.68,2.63,7.75,0,2.69-.55,5.01-1.64,6.95-1.1,1.94-2.57,3.43-4.42,4.46s-3.79,1.77-5.82,2.21-4.18.66-6.43.66Z"></path><path d="m324.96,75.04c-1.63,0-2.93-.02-3.9-.05-.97-.03-2.1-.16-3.38-.38-1.28-.22-2.32-.52-3.1-.89-.79-.38-1.6-.92-2.44-1.64-.85-.72-1.49-1.6-1.93-2.63s-.8-2.33-1.08-3.9c-.28-1.56-.42-3.35-.42-5.35V27.61h-7.51v-4.88h7.51v-10.52h4.98v10.52h16.16v4.88h-16.06v32.5c0,4.2.72,6.94,2.16,8.22,1.44,1.28,4.35,1.92,8.74,1.92,1.81,0,4.23-.5,7.23-1.5l1.31,4.6c-2.94,1.13-5.7,1.69-8.26,1.69Z"></path><path d="m344.28,94.67l7.05-20.66h-2.91l-16.25-51.28h5.73l11.74,38.32,3.01,9.39,3.19-9.2,13.24-38.51h5.45l-25.08,71.94h-5.17Z"></path><path d="m128.43,74.01V22.73h5.35v51.28h-5.35Zm5.35-68.8h-5.35v6.71h5.35v-6.71Z"></path><path d="m290.6,74.01V22.73h5.35v51.28h-5.35Zm5.35-68.8h-5.35v6.71h5.35v-6.71Z"></path></g></g></svg>